<svg width="51" height="51" viewBox="0 0 51 51" fill="none" xmlns="http://www.w3.org/2000/svg">
<path d="M3.5 3.5H49.727V49.7876H3.5V3.5Z" stroke="#064266"/>
<rect x="0.5" y="0.5" width="46.227" height="46.2876" stroke="#046378"/>
<path d="M40.9998 19.0143V14.7846L27.6685 7.22816V11.4578V11.3793L37.2624 16.8995L40.9998 19.0143Z" fill="#046378"/>
<path d="M25.0931 7.20609L14.1238 22.9373H9L13.2419 16.7989L19.931 7.20609H25.0931Z" fill="#046378"/>
<path d="M13.2419 7.22816V16.7989L9 22.9373V7.22816H13.2419Z" fill="#064266"/>
<path d="M25.0931 43L14.1238 27.2688H9L13.2419 33.4072L19.931 43H25.0931Z" fill="#046378"/>
<path d="M13.2419 42.9779V33.4072L9 27.2688V42.9779H13.2419Z" fill="#064266"/>
<path d="M27.6685 26.3966L40.9998 19.0143L37.3019 16.9216L27.6685 22.1669V26.3966Z" fill="#064266"/>
<path d="M27.6685 35.5956V31.366L40.9998 23.8095V28.0392V27.9606L31.4059 33.4808L27.6685 35.5956Z" fill="#046378"/>
<path d="M40.9998 42.9779L27.6685 35.5956L31.3664 33.5029L40.9998 38.7483V42.9779Z" fill="#064266"/>
</svg>
